<?xml version="1.0" standalone="no"?>
<!DOCTYPE svg PUBLIC "-//W3C//DTD SVG 20010904//EN"
 "http://www.w3.org/TR/2001/REC-SVG-20010904/DTD/svg10.dtd">
<svg version="1.0" xmlns="http://www.w3.org/2000/svg"
 width="64.000000pt" height="64.000000pt" viewBox="0 0 64.000000 64.000000"
 preserveAspectRatio="xMidYMid meet">

<g transform="translate(0.000000,64.000000) scale(0.100000,-0.100000)"
fill="#000000" stroke="none">
<path d="M480 622 c-41 -13 -61 -26 -79 -52 -17 -26 -22 -29 -18 -13 5 22 4
22 -24 8 -16 -9 -36 -28 -44 -43 -9 -15 -14 -19 -11 -9 9 30 -9 19 -63 -37
-44 -48 -51 -60 -52 -98 -1 -38 -2 -40 -8 -13 l-6 30 -37 -49 c-27 -34 -40
-63 -44 -97 -4 -26 -11 -47 -17 -46 -17 3 -35 -75 -19 -81 7 -2 12 -11 13 -20
0 -14 2 -14 8 2 4 11 19 20 37 21 16 1 50 11 74 22 l45 21 -45 -4 -45 -4 38
10 c20 5 56 20 80 32 l42 22 -30 7 c-21 5 -24 7 -9 8 56 3 154 56 154 82 0 4
-15 5 -32 3 -18 -3 -51 -1 -73 4 l-40 10 52 1 c70 1 161 36 175 67 6 13 19 26
30 30 10 3 25 19 34 36 l16 30 -34 -6 -33 -6 30 11 c35 14 58 30 50 37 -3 3 1
12 8 20 10 13 8 15 -13 9 l-25 -6 23 17 c13 10 20 20 17 24 -4 3 -43 -22 -89
-56 -45 -33 -111 -81 -146 -106 -77 -55 -157 -141 -221 -239 -27 -40 -49 -67
-49 -60 -1 10 -5 8 -15 -5 -8 -11 -15 -16 -15 -11 0 14 126 197 170 247 53 61
214 170 237 161 10 -4 14 -2 10 4 -4 6 11 22 33 37 40 26 53 43 25 32 -13 -4
-14 -2 -5 14 13 24 11 24 -60 2z"/>
<path d="M388 481 c-40 -27 -96 -74 -125 -103 -56 -58 -163 -203 -163 -221 0
-7 20 18 45 55 76 113 174 209 305 300 14 9 22 17 18 17 -3 1 -39 -21 -80 -48z"/>
<path d="M492 144 c-29 -7 -100 -35 -159 -60 -59 -26 -138 -53 -177 -60 -71
-14 -71 -14 -13 -9 56 5 105 21 257 85 41 18 104 38 140 45 36 7 52 13 35 13
-16 1 -54 -6 -83 -14z"/>
<path d="M36 54 c-3 -9 -6 -23 -6 -31 0 -13 3 -13 15 -3 17 14 20 36 6 44 -5
3 -12 -1 -15 -10z"/>
</g>
</svg>
